<?xml version="1.0" ?><!DOCTYPE svg  PUBLIC '-//W3C//DTD SVG 1.1//EN'  'http://www.w3.org/Graphics/SVG/1.1/DTD/svg11.dtd'><svg enable-background="new 0 0 200 200" height="200px" id="Layer_1" version="1.1" viewBox="0 0 200 200" width="200px" xml:space="preserve" xmlns="http://www.w3.org/2000/svg" xmlns:xlink="http://www.w3.org/1999/xlink"><g><path d="M124.872,171.401v-14.57c0-0.812-0.311-1.626-0.932-2.247c-0.619-0.621-1.43-0.93-2.244-0.93H78.303   c-0.813,0-1.625,0.309-2.246,0.93c-0.62,0.621-0.93,1.436-0.93,2.247v14.57l-17.026,9.406c-0.166,0.097-0.313,0.23-0.417,0.412   c-0.104,0.175-0.156,0.372-0.156,0.565v2.064c0,0.286,0.108,0.572,0.327,0.788c0.216,0.22,0.5,0.327,0.787,0.327h82.715   c0.286,0,0.57-0.107,0.786-0.327c0.22-0.216,0.327-0.502,0.327-0.788v-2.064c0-0.193-0.05-0.391-0.156-0.565   c-0.104-0.182-0.251-0.315-0.42-0.412L124.872,171.401z" fill="#5E889E"/><path d="M197.789,17.244c-1.473-1.475-3.4-2.209-5.329-2.209H7.541c-1.93,0-3.859,0.735-5.33,2.209   C0.735,18.716,0,20.645,0,22.573v119.702c0,1.93,0.734,3.86,2.211,5.333c1.471,1.473,3.399,2.209,5.33,2.209H192.46   c1.929,0,3.856-0.736,5.329-2.209c1.475-1.473,2.211-3.403,2.211-5.333V22.573C200,20.645,199.264,18.716,197.789,17.244z    M100,146.622c-1.841,0-3.334-1.491-3.334-3.332s1.493-3.336,3.334-3.336c1.843,0,3.333,1.495,3.333,3.336   S101.843,146.622,100,146.622z M186.958,136.774H13.043V28.077h173.915V136.774z" fill="#5E889E"/><g><path d="M41.008,126.543c-0.403,0-0.803,0.152-1.11,0.457c-0.309,0.313-0.459,0.711-0.459,1.112v1.19h16.797v-1.19    c0-0.401-0.154-0.8-0.463-1.112c-0.303-0.305-0.707-0.457-1.104-0.457H41.008z" fill="#5E889E"/><path d="M61.513,107.148c-0.398,0-0.801,0.152-1.106,0.457c-0.307,0.309-0.458,0.711-0.458,1.112v20.585h16.792    v-20.585c0-0.401-0.15-0.804-0.458-1.112c-0.309-0.305-0.707-0.457-1.11-0.457H61.513z" fill="#5E889E"/><path d="M82.022,99.174c-0.402,0-0.802,0.15-1.11,0.456c-0.307,0.309-0.458,0.71-0.458,1.112v28.562H97.25v-28.562    c0-0.402-0.153-0.803-0.459-1.112c-0.301-0.305-0.707-0.456-1.108-0.456H82.022z" fill="#5E889E"/><path d="M102.532,102.474c-0.403,0-0.804,0.148-1.108,0.457c-0.309,0.309-0.461,0.707-0.461,1.112v25.26h16.797    v-25.26c0-0.405-0.15-0.804-0.463-1.112c-0.303-0.309-0.703-0.457-1.104-0.457H102.532z" fill="#5E889E"/><path d="M123.039,89.657c-0.405,0-0.806,0.154-1.112,0.458c-0.305,0.309-0.461,0.708-0.461,1.11v38.079h16.803    V91.224c0-0.401-0.156-0.801-0.465-1.11c-0.302-0.303-0.703-0.458-1.106-0.458H123.039z" fill="#5E889E"/><path d="M143.546,73.659c-0.402,0-0.802,0.152-1.11,0.459c-0.303,0.305-0.457,0.708-0.457,1.108v54.076h16.795    V75.227c0-0.4-0.15-0.804-0.46-1.108c-0.305-0.307-0.708-0.459-1.107-0.459H143.546z" fill="#5E889E"/><path d="M171.387,43.723c0.212-0.359,0.195-0.824-0.075-1.173c-0.271-0.346-0.721-0.476-1.119-0.359l-16.78,4.917    c-0.319,0.095-0.591,0.338-0.703,0.682c-0.111,0.344-0.033,0.701,0.17,0.963l2.036,2.611l-50.824,39.645L75.926,79.074    l-46.971,44.598c-0.29,0.279-0.476,0.662-0.489,1.097c-0.005,0.432,0.154,0.83,0.434,1.124l2.161,2.271    c0.277,0.29,0.664,0.48,1.095,0.491c0.433,0.008,0.831-0.156,1.121-0.436l43.985-41.765l27.78,11.767l53.732-41.914l2.036,2.607    c0.204,0.26,0.531,0.424,0.889,0.4c0.36-0.024,0.664-0.223,0.833-0.515L171.387,43.723z" fill="#5E889E"/></g></g></svg>